<svg width="20" height="20" viewBox="0 0 32 32" fill="none" xmlns="http://www.w3.org/2000/svg">
<path d="M9.15527e-05 0H14.9336V7.46678C14.9336 11.5906 11.5907 14.9336 7.46687 14.9336C3.34308 14.9336 9.15527e-05 11.5906 9.15527e-05 7.46677V0Z" fill="white"/>
<path d="M32.0006 7.46678C32.0006 11.5906 28.6576 14.9336 24.5338 14.9336C20.41 14.9336 17.067 11.5906 17.067 7.46678C17.067 3.34299 20.41 0 24.5338 0C28.6576 0 32.0006 3.34299 32.0006 7.46678ZM22.2938 7.46678C22.2938 8.70391 23.2967 9.70681 24.5338 9.70681C25.7709 9.70681 26.7738 8.70391 26.7738 7.46678C26.7738 6.22964 25.7709 5.22674 24.5338 5.22674C23.2967 5.22674 22.2938 6.22964 22.2938 7.46678Z" fill="#FACC15"/>
<path d="M17.0668 32H32.0003V24.5332C32.0003 20.4094 28.6573 17.0664 24.5335 17.0664C20.4098 17.0664 17.0668 20.4094 17.0668 24.5332V32Z" fill="white"/>
<circle cx="7.46705" cy="24.5332" r="7.46678" fill="white"/>
</svg>
